<?xml version="1.0" standalone="no"?>
<!DOCTYPE svg PUBLIC "-//W3C//DTD SVG 20010904//EN"
 "http://www.w3.org/TR/2001/REC-SVG-20010904/DTD/svg10.dtd">
<svg version="1.0" xmlns="http://www.w3.org/2000/svg"
 width="200.000000pt" height="200.000000pt" viewBox="0 0 200.000000 200.000000"
 preserveAspectRatio="xMidYMid meet">

<g transform="translate(0.000000,200.000000) scale(0.100000,-0.100000)"
fill="#000000" stroke="none">
<path d="M344 1519 c-17 -5 -43 -21 -58 -35 -21 -22 -26 -36 -26 -76 0 -60 25
-87 104 -112 68 -22 91 -38 83 -60 -9 -23 -83 -21 -129 4 l-37 19 -21 -29
c-25 -36 -20 -46 34 -71 89 -40 212 -16 236 47 29 76 -6 131 -106 164 -70 24
-86 42 -61 68 15 15 21 14 70 -1 30 -9 57 -17 60 -17 6 0 37 53 37 63 0 9 -75
35 -115 40 -22 3 -54 1 -71 -4z"/>
<path d="M1190 1523 c-8 -3 -27 -17 -42 -31 l-28 -26 0 28 c0 26 -1 27 -52 24
l-53 -3 -3 -174 c-3 -188 0 -201 48 -201 59 0 60 2 60 129 0 136 10 161 65
161 30 0 62 -19 66 -38 1 -4 4 -61 8 -127 6 -116 7 -120 30 -123 12 -2 34 -1
47 2 24 6 24 7 24 142 0 148 -10 191 -54 219 -27 18 -92 28 -116 18z"/>
<path d="M1552 1520 c-115 -49 -159 -188 -93 -293 55 -86 167 -116 258 -69 23
12 45 27 49 33 3 6 -7 25 -24 42 -30 29 -31 30 -56 14 -33 -22 -95 -21 -122 1
-55 44 -59 109 -10 158 41 41 89 46 130 13 l27 -21 30 28 c16 15 29 33 29 38
0 6 -16 22 -36 36 -40 27 -140 38 -182 20z"/>
<path d="M580 1506 c0 -12 25 -79 130 -343 13 -31 -12 -54 -50 -47 -24 5 -31
2 -45 -26 -22 -43 -11 -53 64 -58 89 -6 100 8 194 259 42 113 77 211 77 217 0
8 -18 12 -50 12 l-49 0 -37 -117 c-20 -65 -40 -122 -44 -126 -4 -5 -27 48 -50
117 l-42 126 -49 0 c-36 0 -49 -4 -49 -14z"/>
<path d="M815 994 c-47 -24 -82 -62 -107 -118 -19 -43 -23 -68 -23 -156 0
-110 15 -160 62 -202 79 -71 235 -59 293 23 35 48 40 136 10 184 -29 47 -88
77 -154 77 -57 1 -86 -11 -130 -51 l-29 -26 6 54 c17 150 125 223 238 159 36
-20 41 -21 55 -6 21 21 11 36 -40 59 -51 23 -140 25 -181 3z m155 -263 c59
-43 58 -135 -1 -186 -61 -50 -180 -25 -209 45 -15 37 -7 95 17 123 44 49 139
58 193 18z"/>
<path d="M1306 996 c-53 -20 -106 -65 -140 -119 -38 -61 -47 -164 -21 -233 70
-183 307 -233 445 -95 130 130 96 349 -66 431 -60 30 -160 37 -218 16z m179
-55 c141 -64 176 -229 73 -345 -108 -124 -304 -86 -364 70 -66 174 123 352
291 275z"/>
<path d="M252 978 c3 -21 7 -22 126 -22 67 0 122 -3 122 -7 0 -4 -36 -47 -80
-97 -48 -55 -78 -96 -74 -105 3 -9 26 -16 61 -20 94 -10 145 -65 123 -132 -17
-51 -53 -75 -112 -75 -51 0 -97 18 -135 53 -22 20 -23 20 -43 2 -19 -17 -19
-19 -4 -36 34 -37 115 -69 176 -69 111 0 178 59 178 157 0 76 -51 127 -140
142 l-34 6 73 80 c86 94 105 120 96 135 -4 6 -67 10 -171 10 -164 0 -165 0
-162 -22z"/>
</g>
</svg>
